<?xml version="1.0" encoding="UTF-8" standalone="no"?>
<!-- Generator: Adobe Illustrator 21.1.0, SVG Export Plug-In . SVG Version: 6.00 Build 0)  -->

<svg
   xmlns:dc="http://purl.org/dc/elements/1.1/"
   xmlns:cc="http://creativecommons.org/ns#"
   xmlns:rdf="http://www.w3.org/1999/02/22-rdf-syntax-ns#"
   xmlns:svg="http://www.w3.org/2000/svg"
   xmlns="http://www.w3.org/2000/svg"
   xmlns:sodipodi="http://sodipodi.sourceforge.net/DTD/sodipodi-0.dtd"
   xmlns:inkscape="http://www.inkscape.org/namespaces/inkscape"
   version="1.1"
   x="0px"
   y="0px"
   viewBox="0 0 300 300"
   style="enable-background:new 0 0 300 300;"
   xml:space="preserve"
   id="svg14"
   sodipodi:docname="email.svg"
   inkscape:version="0.92.3 (2405546, 2018-03-11)"><metadata
   id="metadata20"><rdf:RDF><cc:Work
       rdf:about=""><dc:format>image/svg+xml</dc:format><dc:type
         rdf:resource="http://purl.org/dc/dcmitype/StillImage" /></cc:Work></rdf:RDF></metadata><defs
   id="defs18" /><sodipodi:namedview
   pagecolor="#ffffff"
   bordercolor="#666666"
   borderopacity="1"
   objecttolerance="10"
   gridtolerance="10"
   guidetolerance="10"
   inkscape:pageopacity="0"
   inkscape:pageshadow="2"
   inkscape:window-width="1248"
   inkscape:window-height="766"
   id="namedview16"
   showgrid="false"
   showguides="false"
   inkscape:zoom="1.5733333"
   inkscape:cx="144.24036"
   inkscape:cy="158.98355"
   inkscape:window-x="465"
   inkscape:window-y="200"
   inkscape:window-maximized="0"
   inkscape:current-layer="svg14" />
<style
   type="text/css"
   id="style2">
	.st0{fill:#FFFFFF;}
</style>


<g
   transform="matrix(0.5555813,0,0,0.5555813,7.7711805,12.454237)"
   id="g6"
   style="fill:#ffffff"><g
     id="g4"
     style="fill:#ffffff"><path
       inkscape:connector-curvature="0"
       d="M 508.65,115.988 363.186,261.451 505.061,403.43 C 509.356,396.045 512,387.58 512,378.438 V 133.563 c 0,-6.206 -1.278,-12.087 -3.35,-17.575 z"
       id="path2"
       style="fill:#ffffff" /></g></g><g
   transform="matrix(0.5555813,0,0,0.5555813,7.7711805,12.454237)"
   id="g12"
   style="fill:#ffffff"><g
     id="g10"
     style="fill:#ffffff"><path
       inkscape:connector-curvature="0"
       d="M 461.913,83.476 H 50.087 c -8.327,0 -16.066,2.236 -22.982,5.847 L 245.76,307.976 c 6.344,6.344 17.363,6.344 23.596,0 L 486.982,90.456 c -7.402,-4.323 -15.894,-6.98 -25.069,-6.98 z"
       id="path8"
       style="fill:#ffffff" /></g></g><g
   transform="matrix(0.5555813,0,0,0.5555813,7.7711805,12.454237)"
   id="g18"
   style="fill:#ffffff"><g
     id="g16"
     style="fill:#ffffff"><path
       inkscape:connector-curvature="0"
       d="M 4.201,113.611 C 1.527,119.733 0,126.465 0,133.563 v 244.875 c 0,8.997 2.573,17.327 6.743,24.632 L 150.15,259.56 Z"
       id="path14"
       style="fill:#ffffff" /></g></g><g
   transform="matrix(0.5555813,0,0,0.5555813,7.7711805,12.454237)"
   id="g24"
   style="fill:#ffffff"><g
     id="g22"
     style="fill:#ffffff"><path
       inkscape:connector-curvature="0"
       d="m 339.478,285.159 -46.414,46.525 c -19.496,19.275 -51.084,19.591 -70.901,0 L 173.857,283.267 32.006,425.017 c 5.625,2.192 11.69,3.507 18.081,3.507 h 411.826 c 6.235,0 12.146,-1.284 17.657,-3.376 z"
       id="path20"
       style="fill:#ffffff" /></g></g></svg>