<?xml version="1.0" encoding="UTF-8" standalone="no"?>
<!-- Generator: Adobe Illustrator 21.1.0, SVG Export Plug-In . SVG Version: 6.00 Build 0)  -->

<svg
   xmlns:dc="http://purl.org/dc/elements/1.1/"
   xmlns:cc="http://creativecommons.org/ns#"
   xmlns:rdf="http://www.w3.org/1999/02/22-rdf-syntax-ns#"
   xmlns:svg="http://www.w3.org/2000/svg"
   xmlns="http://www.w3.org/2000/svg"
   xmlns:sodipodi="http://sodipodi.sourceforge.net/DTD/sodipodi-0.dtd"
   xmlns:inkscape="http://www.inkscape.org/namespaces/inkscape"
   version="1.1"
   x="0px"
   y="0px"
   viewBox="0 0 300 300"
   style="enable-background:new 0 0 300 300;"
   xml:space="preserve"
   id="svg14"
   sodipodi:docname="orcid.svg"
   inkscape:version="0.92.3 (2405546, 2018-03-11)"><metadata
   id="metadata20"><rdf:RDF><cc:Work
       rdf:about=""><dc:format>image/svg+xml</dc:format><dc:type
         rdf:resource="http://purl.org/dc/dcmitype/StillImage" /></cc:Work></rdf:RDF></metadata><defs
   id="defs18" /><sodipodi:namedview
   pagecolor="#ffffff"
   bordercolor="#666666"
   borderopacity="1"
   objecttolerance="10"
   gridtolerance="10"
   guidetolerance="10"
   inkscape:pageopacity="0"
   inkscape:pageshadow="2"
   inkscape:window-width="780"
   inkscape:window-height="485"
   id="namedview16"
   showgrid="false"
   inkscape:zoom="0.78666667"
   inkscape:cx="163.98305"
   inkscape:cy="136.01695"
   inkscape:window-x="591"
   inkscape:window-y="484"
   inkscape:window-maximized="0"
   inkscape:current-layer="g12" />
<style
   type="text/css"
   id="style2">
	.st0{fill:#FFFFFF;}
</style>


<path
   inkscape:connector-curvature="0"
   class="st0"
   d="m 286.89831,151.27118 c 0,76.31705 -61.85244,138.16949 -138.16949,138.16949 -76.317062,0 -138.169498,-61.85244 -138.169498,-138.16949 0,-76.317048 61.852436,-138.169485 138.169498,-138.169485 76.31705,0 138.16949,61.852437 138.16949,138.169485 z"
   id="path4"
   style="fill:#ffffff;fill-opacity:1;stroke-width:1.07944918" /><g
   id="g12"
   transform="matrix(1.0794492,0,0,1.0794492,10.559322,13.101695)"><path
     inkscape:connector-curvature="0"
     class="st1"
     d="M 86.3,186.2 H 70.9 V 79.1 h 15.4 v 48.4 z"
     id="path6"
     style="fill:#000000" /><path
     inkscape:connector-curvature="0"
     class="st1"
     d="m 108.9,79.1 h 41.6 c 39.6,0 57,28.3 57,53.6 0,27.5 -21.5,53.6 -56.8,53.6 h -41.8 z m 15.4,93.3 h 24.5 c 34.9,0 42.9,-26.5 42.9,-39.7 C 191.7,111.2 178,93 148,93 h -23.7 z"
     id="path8"
     style="fill:#000000" /><path
     inkscape:connector-curvature="0"
     class="st1"
     d="m 88.7,56.8 c 0,5.5 -4.5,10.1 -10.1,10.1 -5.6,0 -10.1,-4.6 -10.1,-10.1 0,-5.6 4.5,-10.1 10.1,-10.1 5.6,0 10.1,4.6 10.1,10.1 z"
     id="path10"
     style="fill:#000000" /></g></svg>